<svg width="13" height="22" viewBox="0 0 13 22" fill="none" xmlns="http://www.w3.org/2000/svg">
<mask id="mask0" mask-type="alpha" maskUnits="userSpaceOnUse" x="0" y="0" width="13" height="22">
<path fill-rule="evenodd" clip-rule="evenodd" d="M9.75946 0.985511L0.395654 9.97547C-0.131885 10.4812 -0.131885 11.3255 0.395654 11.8333L9.75946 20.8212C10.3337 21.3726 11.2403 21.3726 11.8146 20.8212C12.4221 20.2375 12.4221 19.2656 11.8146 18.6809L3.97212 11.1521C3.82985 11.016 3.82985 10.7907 3.97212 10.6546L11.8146 3.12578C12.4221 2.54217 12.4221 1.57017 11.8146 0.985511C11.5269 0.711358 11.1572 0.573242 10.7875 0.573242C10.4168 0.573242 10.0471 0.711358 9.75946 0.985511Z" fill="white"/>
</mask>
<g mask="url(#mask0)">
<path fill-rule="evenodd" clip-rule="evenodd" d="M9.75946 0.985511L0.395654 9.97547C-0.131885 10.4812 -0.131885 11.3255 0.395654 11.8333L9.75946 20.8212C10.3337 21.3726 11.2403 21.3726 11.8146 20.8212C12.4221 20.2375 12.4221 19.2656 11.8146 18.6809L3.97212 11.1521C3.82985 11.016 3.82985 10.7907 3.97212 10.6546L11.8146 3.12578C12.4221 2.54217 12.4221 1.57017 11.8146 0.985511C11.5269 0.711358 11.1572 0.573242 10.7875 0.573242C10.4168 0.573242 10.0471 0.711358 9.75946 0.985511Z" fill="black"/>
</g>
</svg>
