<svg width="375" height="20" viewBox="0 0 375 20" fill="none" xmlns="http://www.w3.org/2000/svg">
<path d="M0 0H375V20H0V0Z" fill="#DBE9F5"/>
<path fill-rule="evenodd" clip-rule="evenodd" d="M0 0V20H375V0H0Z" fill="black" fill-opacity="0.01"/>
<path d="M34.1738 10.2305V9.19922H30.7461V10.125H33.125V10.3301C33.125 11.7598 32.0996 12.7266 30.5879 12.7266C28.8887 12.7266 27.834 11.4023 27.834 9.26953C27.834 7.16602 28.9062 5.81836 30.582 5.81836C31.8359 5.81836 32.6855 6.42188 33.0488 7.56445H34.1211C33.8164 5.88867 32.457 4.8457 30.582 4.8457C28.2676 4.8457 26.75 6.59766 26.75 9.26953C26.75 11.9766 28.2441 13.6992 30.582 13.6992C32.7441 13.6992 34.1738 12.3164 34.1738 10.2305ZM35.6387 11.291C35.75 12.75 36.9863 13.6992 38.7793 13.6992C40.7129 13.6992 41.9375 12.709 41.9375 11.1562C41.9375 9.91406 41.2344 9.23438 39.4824 8.79492L38.5977 8.56055C37.4316 8.26172 36.9688 7.88086 36.9688 7.21875C36.9688 6.36328 37.7129 5.80078 38.8379 5.80078C39.8926 5.80078 40.6074 6.31641 40.7539 7.18359H41.8145C41.7266 5.81836 40.5078 4.8457 38.873 4.8457C37.0859 4.8457 35.8848 5.81836 35.8848 7.25391C35.8848 8.45508 36.5469 9.14648 38.0762 9.5332L39.1602 9.81445C40.3262 10.1074 40.8535 10.5645 40.8535 11.2852C40.8535 12.123 40.0156 12.7383 38.8789 12.7383C37.6777 12.7383 36.834 12.1758 36.7051 11.291H35.6387Z" fill="black"/>
<path d="M315.168 14.5H316.223V6.04492H315.174L312.924 7.66211V8.77539L315.074 7.2168H315.168V14.5ZM321.59 14.6992C323.488 14.6992 324.578 13.0938 324.578 10.2871C324.578 7.48633 323.471 5.8457 321.59 5.8457C319.697 5.8457 318.59 7.48047 318.59 10.2695C318.59 13.082 319.686 14.6992 321.59 14.6992ZM321.59 13.7793C320.342 13.7793 319.65 12.5312 319.65 10.2695C319.65 8.03711 320.354 6.77148 321.59 6.77148C322.826 6.77148 323.518 8.02539 323.518 10.2695C323.518 12.5371 322.838 13.7793 321.59 13.7793ZM329.148 14.6992C331.047 14.6992 332.137 13.0938 332.137 10.2871C332.137 7.48633 331.029 5.8457 329.148 5.8457C327.256 5.8457 326.148 7.48047 326.148 10.2695C326.148 13.082 327.244 14.6992 329.148 14.6992ZM329.148 13.7793C327.9 13.7793 327.209 12.5312 327.209 10.2695C327.209 8.03711 327.912 6.77148 329.148 6.77148C330.385 6.77148 331.076 8.02539 331.076 10.2695C331.076 12.5371 330.396 13.7793 329.148 13.7793ZM335.137 9.87109C336.279 9.87109 336.971 9.12695 336.971 7.87891C336.971 6.64844 336.273 5.89258 335.137 5.89258C334 5.89258 333.297 6.64844 333.297 7.87891C333.297 9.12109 333.988 9.87109 335.137 9.87109ZM335.518 14.5L341.359 6.04492H340.404L334.562 14.5H335.518ZM335.137 9.10352C334.545 9.10352 334.205 8.6582 334.205 7.88477C334.205 7.11719 334.545 6.66602 335.137 6.66602C335.723 6.66602 336.062 7.11719 336.062 7.88477C336.062 8.65234 335.729 9.10352 335.137 9.10352ZM340.791 14.582C341.934 14.582 342.625 13.8379 342.625 12.5898C342.625 11.3594 341.928 10.6035 340.791 10.6035C339.654 10.6035 338.951 11.3594 338.951 12.5898C338.951 13.832 339.648 14.582 340.791 14.582ZM340.791 13.8145C340.199 13.8145 339.865 13.3691 339.865 12.5957C339.865 11.8281 340.199 11.377 340.791 11.377C341.383 11.377 341.717 11.8281 341.717 12.5957C341.717 13.3633 341.383 13.8145 340.791 13.8145Z" fill="#030303"/>
<path opacity="0.4" d="M346.5 7.5C346.5 6.39543 347.395 5.5 348.5 5.5H365.5C366.605 5.5 367.5 6.39543 367.5 7.5V13C367.5 14.1046 366.605 15 365.5 15H364.469H348.5C347.395 15 346.5 14.1046 346.5 13V7.5Z" stroke="black"/>
<path fill-rule="evenodd" clip-rule="evenodd" d="M369 12.374C369.863 12.152 370.5 11.3689 370.5 10.437C370.5 9.50507 369.863 8.72202 369 8.5V12.374Z" fill="black" fill-opacity="0.5"/>
<path fill-rule="evenodd" clip-rule="evenodd" d="M348 8C348 7.44772 348.448 7 349 7H365C365.552 7 366 7.44772 366 8V12.5C366 13.0523 365.552 13.5 365 13.5H349C348.448 13.5 348 13.0523 348 12.5V8Z" fill="black"/>
<path d="M167.176 13.7109C169.021 13.7109 170.258 12.498 170.258 10.7285C170.258 9.0293 169.086 7.94531 167.639 7.94531C166.777 7.94531 166.156 8.23828 165.781 8.75977H165.682L165.916 6.28711H169.807V5.04492H164.738L164.275 9.96094H165.646C165.934 9.4043 166.49 9.07031 167.211 9.07031C168.143 9.07031 168.799 9.74414 168.799 10.752C168.799 11.7891 168.143 12.4805 167.17 12.4805C166.309 12.4805 165.658 11.959 165.564 11.168H164.152C164.217 12.6504 165.43 13.7109 167.176 13.7109ZM172.965 8.02734C173.521 8.02734 173.902 7.64062 173.902 7.11914C173.902 6.59766 173.521 6.21094 172.965 6.21094C172.414 6.21094 172.027 6.59766 172.027 7.11914C172.027 7.64062 172.414 8.02734 172.965 8.02734ZM172.965 12.3281C173.521 12.3281 173.902 11.9355 173.902 11.4199C173.902 10.8984 173.521 10.5117 172.965 10.5117C172.414 10.5117 172.027 10.8984 172.027 11.4199C172.027 11.9355 172.414 12.3281 172.965 12.3281ZM178.871 13.7109C180.893 13.7109 182.094 12.0762 182.094 9.27539C182.094 6.46875 180.875 4.83398 178.871 4.83398C176.861 4.83398 175.643 6.46875 175.643 9.26367C175.643 12.0703 176.844 13.7109 178.871 13.7109ZM178.871 12.4863C177.799 12.4863 177.172 11.373 177.172 9.26367C177.172 7.17188 177.811 6.06445 178.871 6.06445C179.932 6.06445 180.564 7.16602 180.564 9.26367C180.564 11.3789 179.943 12.4863 178.871 12.4863ZM186.852 13.7109C188.873 13.7109 190.074 12.0762 190.074 9.27539C190.074 6.46875 188.855 4.83398 186.852 4.83398C184.842 4.83398 183.623 6.46875 183.623 9.26367C183.623 12.0703 184.824 13.7109 186.852 13.7109ZM186.852 12.4863C185.779 12.4863 185.152 11.373 185.152 9.26367C185.152 7.17188 185.791 6.06445 186.852 6.06445C187.912 6.06445 188.545 7.16602 188.545 9.26367C188.545 11.3789 187.924 12.4863 186.852 12.4863ZM195.084 5.04492V13.5H196.596V10.7051H198.43C200.141 10.7051 201.336 9.5625 201.336 7.89258C201.336 6.19336 200.182 5.04492 198.494 5.04492H195.084ZM196.596 6.28125H198.096C199.186 6.28125 199.801 6.84375 199.801 7.89258C199.801 8.91211 199.168 9.48633 198.09 9.48633H196.596V6.28125ZM211.736 13.5V5.04492H209.967L207.424 11.3203H207.318L204.775 5.04492H203.006V13.5H204.412V7.50586H204.494L206.832 13.2363H207.91L210.248 7.50586H210.33V13.5H211.736Z" fill="#030303"/>
<path fill-rule="evenodd" clip-rule="evenodd" d="M51.9876 5.5C54.5506 5.5 56.863 6.53944 58.5 8.20688L57.4119 9.26404C56.0539 7.86553 54.126 6.99223 51.9876 6.99223C49.8629 6.99223 47.9461 7.85432 46.5896 9.23709L45.5 8.18164C47.1355 6.52896 49.4375 5.5 51.9876 5.5ZM56.3235 10.3214C55.2448 9.19175 53.7014 8.48446 51.9876 8.48446C50.2883 8.48446 48.7566 9.17976 47.6793 10.2927L48.7693 11.3486C49.5672 10.5054 50.7136 9.97668 51.9876 9.97668C53.2769 9.97668 54.4356 10.5182 55.2346 11.3793L56.3235 10.3214ZM54.1444 12.4385C53.6264 11.8454 52.8524 11.4689 51.9876 11.4689C51.139 11.4689 50.3779 11.8314 49.8602 12.4053L52.0225 14.5L54.1444 12.4385Z" fill="#030303"/>
<path fill-rule="evenodd" clip-rule="evenodd" d="M19.5 5C19.2239 5 19 5.22386 19 5.5V14C19 14.2761 19.2239 14.5 19.5 14.5H21C21.2761 14.5 21.5 14.2761 21.5 14V5.5C21.5 5.22386 21.2761 5 21 5H19.5ZM15.5 7.5C15.2239 7.5 15 7.72386 15 8V14C15 14.2761 15.2239 14.5 15.5 14.5H17C17.2761 14.5 17.5 14.2761 17.5 14V8C17.5 7.72386 17.2761 7.5 17 7.5H15.5ZM11 10C11 9.72386 11.2239 9.5 11.5 9.5H13C13.2761 9.5 13.5 9.72386 13.5 10V14C13.5 14.2761 13.2761 14.5 13 14.5H11.5C11.2239 14.5 11 14.2761 11 14V10ZM7.5 11.5C7.22386 11.5 7 11.7239 7 12V14C7 14.2761 7.22386 14.5 7.5 14.5H9C9.27614 14.5 9.5 14.2761 9.5 14V12C9.5 11.7239 9.27614 11.5 9 11.5H7.5Z" fill="black"/>
</svg>
