<svg width="40" height="40" viewBox="0 0 40 40" fill="none" xmlns="http://www.w3.org/2000/svg">
<path d="M19.58 39.16C23.4526 39.16 27.2382 38.0117 30.4581 35.8602C33.678 33.7087 36.1876 30.6507 37.6696 27.073C39.1515 23.4952 39.5393 19.5583 38.7838 15.7601C38.0283 11.962 36.1635 8.47317 33.4251 5.73486C30.6868 2.99655 27.198 1.13173 23.3999 0.376233C19.6017 -0.379265 15.6648 0.00848329 12.0871 1.49045C8.50928 2.97241 5.4513 5.48203 3.29983 8.70194C1.14835 11.9219 0 15.7075 0 19.58C0.00529456 24.7713 2.06988 29.7485 5.7407 33.4193C9.41151 37.0901 14.3887 39.1547 19.58 39.16V39.16ZM19.58 3.00001C22.8592 3.00001 26.0648 3.97241 28.7914 5.79424C31.5179 7.61608 33.643 10.2055 34.8979 13.2351C36.1528 16.2647 36.4812 19.5984 35.8414 22.8146C35.2017 26.0308 33.6226 28.9851 31.3038 31.3038C28.9851 33.6226 26.0308 35.2017 22.8146 35.8414C19.5984 36.4812 16.2647 36.1528 13.2351 34.8979C10.2055 33.643 7.61607 31.5179 5.79423 28.7914C3.9724 26.0648 3 22.8592 3 19.58C3.00529 15.1843 4.75381 10.9702 7.86202 7.86203C10.9702 4.75382 15.1843 3.0053 19.58 3.00001V3.00001Z" fill="black"/>
<path d="M19.58 14.14C20.9552 14.14 22.07 13.0252 22.07 11.65C22.07 10.2748 20.9552 9.16001 19.58 9.16001C18.2048 9.16001 17.09 10.2748 17.09 11.65C17.09 13.0252 18.2048 14.14 19.58 14.14Z" fill="black"/>
<path d="M19.58 16.58C19.1822 16.58 18.8007 16.738 18.5194 17.0193C18.2381 17.3007 18.08 17.6822 18.08 18.08V27.28C18.08 27.6778 18.2381 28.0594 18.5194 28.3407C18.8007 28.622 19.1822 28.78 19.58 28.78C19.9778 28.78 20.3594 28.622 20.6407 28.3407C20.922 28.0594 21.08 27.6778 21.08 27.28V18.08C21.08 17.6822 20.922 17.3007 20.6407 17.0193C20.3594 16.738 19.9778 16.58 19.58 16.58V16.58Z" fill="black"/>
</svg>
