<svg xmlns="http://www.w3.org/2000/svg" xmlns:xlink="http://www.w3.org/1999/xlink" version="1.1" x="0px" y="0px" viewBox="0 0 36 45" style="enable-background:new 0 0 36 36;" xml:space="preserve"><g><path d="M31.15,31.15v-1c0-13.95-11.35-25.3-25.3-25.3h-1v2h1c12.85,0,23.3,10.45,23.3,23.3v1H31.15z"/><path d="M4.85,14.95h1c8.38,0,15.2,6.82,15.2,15.2v1h2v-1c0-9.48-7.72-17.2-17.2-17.2h-1V14.95z"/><path d="M4.85,23.05h1c3.91,0,7.1,3.18,7.1,7.1v1h2v-1c0-5.02-4.08-9.1-9.1-9.1h-1V23.05z"/></g><text x="0" y="51" fill="#000000" font-size="5px" font-weight="bold" font-family="'Helvetica Neue', Helvetica, Arial-Unicode, Arial, Sans-serif">Created by barurezeki</text><text x="0" y="56" fill="#000000" font-size="5px" font-weight="bold" font-family="'Helvetica Neue', Helvetica, Arial-Unicode, Arial, Sans-serif">from the Noun Project</text></svg>