<svg width="11" height="11" viewBox="0 0 11 11" fill="none" xmlns="http://www.w3.org/2000/svg">
<path d="M11 11V10.5817C11 4.74715 6.25285 0 0.418251 0H0V0.836502H0.418251C5.79278 0.836502 10.1635 5.20722 10.1635 10.5817V11H11Z" fill="white"/>
<path d="M0 4.22433H0.418251C3.92319 4.22433 6.77566 7.07681 6.77566 10.5817V11H7.61217V10.5817C7.61217 6.61673 4.38327 3.38783 0.418251 3.38783H0V4.22433V4.22433Z" fill="white"/>
<path d="M0 7.61217H0.418251C2.05361 7.61217 3.38783 8.94221 3.38783 10.5817V11H4.22433V10.5817C4.22433 8.48213 2.51787 6.77567 0.418251 6.77567H0V7.61217Z" fill="white"/>
</svg>
